<?xml version="1.0" encoding="UTF-8" standalone="no"?>
<svg
   viewBox="0 0 40 40"
   version="1.1"
   id="svg13"
   sodipodi:docname="AwsRegion.svg"
   xml:space="preserve"
   width="40"
   height="40"
   inkscape:version="1.2.2 (b0a8486541, 2022-12-01)"
   xmlns:inkscape="http://www.inkscape.org/namespaces/inkscape"
   xmlns:sodipodi="http://sodipodi.sourceforge.net/DTD/sodipodi-0.dtd"
   xmlns="http://www.w3.org/2000/svg"
   xmlns:svg="http://www.w3.org/2000/svg"
   xmlns:rdf="http://www.w3.org/1999/02/22-rdf-syntax-ns#"
   xmlns:cc="http://creativecommons.org/ns#"
   xmlns:dc="http://purl.org/dc/elements/1.1/"><sodipodi:namedview
     id="namedview15"
     pagecolor="#ffffff"
     bordercolor="#666666"
     borderopacity="1.0"
     inkscape:showpageshadow="2"
     inkscape:pageopacity="0.0"
     inkscape:pagecheckerboard="0"
     inkscape:deskcolor="#d1d1d1"
     showgrid="false"
     inkscape:zoom="6.7428571"
     inkscape:cx="17.574153"
     inkscape:cy="17.574153"
     inkscape:window-width="1920"
     inkscape:window-height="1008"
     inkscape:window-x="0"
     inkscape:window-y="0"
     inkscape:window-maximized="1"
     inkscape:current-layer="svg13" /><defs
     id="defs4"><style
       id="style2">.cls-1{fill:#147eba;}.cls-2{fill:#fff;}</style><linearGradient
       x1="0"
       y1="40"
       x2="40"
       y2="0"
       id="Arch_AWS-Secrets-Manager_32_svg__a"
       gradientUnits="userSpaceOnUse"><stop
         stop-color="#BD0816"
         offset="0"
         id="stop2"
         style="stop-color:#137bb4;stop-opacity:1;" /><stop
         stop-color="#FF5252"
         offset="1"
         id="stop4"
         style="stop-color:#63bcee;stop-opacity:1;" /></linearGradient></defs><title
     id="title6">Region_light-bg</title><rect
     class="cls-1"
     width="40"
     height="40"
     id="rect8"
     x="0"
     y="0"
     style="stroke-width:1.14286" /><path
     d="M 0,-2e-7 H 40 V 40 H 0 Z"
     fill="url(#Arch_AWS-Secrets-Manager_32_svg__a)"
     id="path9"
     style="fill:url(#Arch_AWS-Secrets-Manager_32_svg__a);fill-rule:evenodd" /><path
     class="cls-2"
     d="m 31.314285,20.959999 -4.251429,-5.257142 4.251429,-5.268572 H 12.628571 V 8.9485711 a 1.6571428,1.6571428 0 0 0 1.142857,-1.5657142 1.6799999,1.6799999 0 0 0 -3.348571,0 1.6457142,1.6457142 0 0 0 1.142857,1.5657142 V 33.142856 h -2.88 v 1.142857 h 6.754285 V 33.142856 H 12.628571 V 20.959999 Z M 12.057142,6.8571426 a 0.53714284,0.53714284 0 1 1 -0.525714,0.5257143 0.53714284,0.53714284 0 0 1 0.525714,-0.5257143 z m 16.857143,4.7199994 -3.325715,4.125715 3.325715,4.114285 H 12.628571 v -8.24 z"
     id="path10"
     style="stroke-width:1.14286" /><metadata
     id="metadata871"><rdf:RDF><cc:Work
         rdf:about=""><dc:title>Region_light-bg</dc:title></cc:Work></rdf:RDF></metadata></svg>
