<?xml version="1.0" encoding="UTF-8" standalone="no"?>
<svg
   class="w-6 h-6"
   height="40"
   width="40"
   version="1.1"
   id="svg15"
   sodipodi:docname="PublicSubnet.svg"
   xml:space="preserve"
   inkscape:version="1.2.2 (b0a8486541, 2022-12-01)"
   xmlns:inkscape="http://www.inkscape.org/namespaces/inkscape"
   xmlns:sodipodi="http://sodipodi.sourceforge.net/DTD/sodipodi-0.dtd"
   xmlns="http://www.w3.org/2000/svg"
   xmlns:svg="http://www.w3.org/2000/svg"><sodipodi:namedview
     id="namedview17"
     pagecolor="#ffffff"
     bordercolor="#666666"
     borderopacity="1.0"
     inkscape:showpageshadow="2"
     inkscape:pageopacity="0.0"
     inkscape:pagecheckerboard="0"
     inkscape:deskcolor="#d1d1d1"
     showgrid="false"
     inkscape:zoom="5.9"
     inkscape:cx="0.25423729"
     inkscape:cy="5.6779661"
     inkscape:window-width="1920"
     inkscape:window-height="1008"
     inkscape:window-x="0"
     inkscape:window-y="0"
     inkscape:window-maximized="1"
     inkscape:current-layer="svg15" /><defs
     id="defs7"><linearGradient
       x1="0"
       y1="40"
       x2="40"
       y2="0"
       id="Arch_AWS-Secrets-Manager_32_svg__a"
       gradientUnits="userSpaceOnUse"><stop
         stop-color="#BD0816"
         offset="0"
         id="stop2"
         style="stop-color:#2baa1d;stop-opacity:1;" /><stop
         stop-color="#FF5252"
         offset="1"
         id="stop4"
         style="stop-color:#79e869;stop-opacity:1;" /></linearGradient></defs><path
     d="M 0,0 H 40 V 40 H 0 Z"
     fill="url(#Arch_AWS-Secrets-Manager_32_svg__a)"
     id="path9"
     style="fill:url(#Arch_AWS-Secrets-Manager_32_svg__a);fill-rule:evenodd" /><g
     id="g260"
     transform="matrix(1.853527,0,0,1.853527,-17.997303,-17.012618)"><path
       id="path225"
       style="fill:#ffffff;fill-rule:evenodd"
       d="m 20.501953,12.953125 c -2.669994,0 -4.53125,2.132879 -4.53125,4.046875 v 2.011719 h -0.378906 c -0.277,0 -0.5,0.223 -0.5,0.5 v 6.972656 c -5.54e-4,0.276372 0.223628,0.500554 0.5,0.5 h 9.816406 c 0.276142,0 0.5,-0.223858 0.5,-0.5 v -6.972656 c 0,-0.276142 -0.223858,-0.5 -0.5,-0.5 H 24.988281 V 17 c 0,-1.913996 -1.842334,-4.046875 -4.486328,-4.046875 z m 0,1 c 2.159996,0 3.486328,1.774877 3.486328,3.046875 v 2.011719 H 16.970703 V 17 c 0,-1.271998 1.343254,-3.046875 3.53125,-3.046875 z m -4.410156,6.058594 h 8.816406 v 5.972656 h -8.816406 z"
       sodipodi:nodetypes="sscssccsssscssssccssccccc" /><path
       id="path219"
       style="fill:#ffffff;fill-rule:evenodd"
       d="m 20.5,20.539062 c -0.870999,0 -1.580078,0.709079 -1.580078,1.580079 A 1.577,1.577 0 0 0 20,23.611328 V 25 h 1 v -1.388672 c 0.624999,-0.21 1.080078,-0.797188 1.080078,-1.492187 0,-0.871 -0.709079,-1.580079 -1.580078,-1.580079 z m -0.04297,1.001954 a 0.58,0.58 0 0 1 0.623047,0.578125 0.58007813,0.58007813 0 0 1 -1.160156,0 0.58,0.58 0 0 1 0.537109,-0.578125 z" /></g></svg>
